<svg width="26" height="23" viewBox="0 0 26 23" fill="none" xmlns="http://www.w3.org/2000/svg">
<path d="M0.488281 21.5234V1.71875C0.488281 1.46875 0.578125 1.25 0.757812 1.0625C0.945312 0.875 1.17188 0.78125 1.4375 0.78125C1.69531 0.78125 1.91406 0.875 2.09375 1.0625C2.28125 1.25 2.375 1.46875 2.375 1.71875V20.2461C2.375 20.4648 2.48438 20.5742 2.70312 20.5742H24.7344C24.9922 20.5742 25.2148 20.6641 25.4023 20.8438C25.5898 21.0312 25.6836 21.2539 25.6836 21.5117C25.6836 21.7773 25.5898 22 25.4023 22.1797C25.2148 22.3594 24.9922 22.4492 24.7344 22.4492H1.42578C1.14453 22.4492 0.917969 22.3633 0.746094 22.1914C0.574219 22.0273 0.488281 21.8047 0.488281 21.5234ZM1.71875 14.2344V12.6289L9.37109 8.21094L14.7734 12.8398L23.5859 7.58984L24.3242 8.78516L14.6797 14.5273L9.25391 9.875L1.71875 14.2344ZM9.10156 11.457C8.71875 11.457 8.36719 11.3633 8.04688 11.1758C7.73438 10.9883 7.48438 10.7383 7.29688 10.4258C7.10938 10.1055 7.01562 9.75391 7.01562 9.37109C7.01562 8.98828 7.10938 8.64062 7.29688 8.32812C7.48438 8.00781 7.73438 7.75781 8.04688 7.57812C8.36719 7.39062 8.71875 7.29688 9.10156 7.29688C9.48438 7.29688 9.83203 7.39062 10.1445 7.57812C10.4648 7.75781 10.7188 8.00781 10.9062 8.32812C11.0938 8.64062 11.1875 8.98828 11.1875 9.37109C11.1875 9.75391 11.0938 10.1055 10.9062 10.4258C10.7188 10.7383 10.4648 10.9883 10.1445 11.1758C9.83203 11.3633 9.48438 11.457 9.10156 11.457ZM14.6328 15.7578C14.25 15.7578 13.8984 15.6641 13.5781 15.4766C13.2656 15.2891 13.0156 15.0391 12.8281 14.7266C12.6406 14.4062 12.5469 14.0547 12.5469 13.6719C12.5469 13.2891 12.6406 12.9414 12.8281 12.6289C13.0156 12.3086 13.2656 12.0586 13.5781 11.8789C13.8984 11.6914 14.25 11.5977 14.6328 11.5977C15.0156 11.5977 15.3633 11.6914 15.6758 11.8789C15.9961 12.0586 16.2461 12.3086 16.4258 12.6289C16.6133 12.9414 16.707 13.2891 16.707 13.6719C16.707 14.0547 16.6133 14.4062 16.4258 14.7266C16.2461 15.0391 15.9961 15.2891 15.6758 15.4766C15.3633 15.6641 15.0156 15.7578 14.6328 15.7578ZM23.4688 10.4258C23.0859 10.4258 22.7344 10.332 22.4141 10.1445C22.1016 9.95703 21.8516 9.70703 21.6641 9.39453C21.4766 9.07422 21.3828 8.72266 21.3828 8.33984C21.3828 7.95703 21.4766 7.60938 21.6641 7.29688C21.8516 6.97656 22.1016 6.72266 22.4141 6.53516C22.7344 6.34766 23.0859 6.25391 23.4688 6.25391C23.8516 6.25391 24.1992 6.34766 24.5117 6.53516C24.832 6.72266 25.0859 6.97656 25.2734 7.29688C25.4609 7.60938 25.5547 7.95703 25.5547 8.33984C25.5547 8.72266 25.4609 9.07422 25.2734 9.39453C25.0859 9.70703 24.832 9.95703 24.5117 10.1445C24.1992 10.332 23.8516 10.4258 23.4688 10.4258Z" fill="#757575"/>
</svg>
