<svg width="25" height="27" viewBox="0 0 25 27" fill="none" xmlns="http://www.w3.org/2000/svg">
<path d="M2.12891 20.9336C1.59766 20.6289 1.19141 20.2773 0.910156 19.8789C0.628906 19.4805 0.488281 18.8633 0.488281 18.0273V8.74609C0.488281 8.13672 0.601562 7.63281 0.828125 7.23438C1.0625 6.82812 1.42969 6.48438 1.92969 6.20312L10.2148 1.49219C10.9258 1.08594 11.6289 0.882812 12.3242 0.882812C13.0195 0.882812 13.7188 1.08594 14.4219 1.49219L22.7188 6.20312C23.2109 6.48438 23.5703 6.82812 23.7969 7.23438C24.0312 7.63281 24.1484 8.13672 24.1484 8.74609V18.0273C24.1484 18.8633 24.0078 19.4805 23.7266 19.8789C23.4531 20.2773 23.0469 20.6289 22.5078 20.9336L13.2969 26.1602C12.9609 26.3477 12.6328 26.4414 12.3125 26.4414C12 26.4414 11.6797 26.3477 11.3516 26.1602L2.12891 20.9336ZM3.18359 19.3867L11.3984 24.0625V14.3359L2.26953 9.12109V17.9688C2.26953 18.2891 2.33594 18.5586 2.46875 18.7773C2.60156 18.9961 2.83984 19.1992 3.18359 19.3867ZM21.4648 19.3867C21.8008 19.1992 22.0352 18.9961 22.168 18.7773C22.3008 18.5586 22.3672 18.2891 22.3672 17.9688V9.12109L13.2383 14.3359V24.0625L21.4648 19.3867ZM12.3242 12.6953L15.9453 10.6445L6.89844 5.5L3.27734 7.57422L12.3242 12.6953ZM17.832 9.57812L21.3711 7.57422L13.6484 3.16797C12.7734 2.66016 11.8906 2.66016 11 3.16797L8.75 4.44531L17.832 9.57812Z" fill="#757575"/>
</svg>
